<?xml version="1.0" encoding="UTF-8"?>
<!DOCTYPE svg PUBLIC "-//W3C//DTD SVG 1.1//EN" "http://www.w3.org/Graphics/SVG/1.1/DTD/svg11.dtd">
<!-- Creator: CorelDRAW 2020 (64 Bit) -->
<svg xmlns="http://www.w3.org/2000/svg" xml:space="preserve" width="53.0806mm" height="21.8698mm" version="1.1" style="shape-rendering:geometricPrecision; text-rendering:geometricPrecision; image-rendering:optimizeQuality; fill-rule:evenodd; clip-rule:evenodd"
viewBox="0 0 5293.84 2181.12"
 xmlns:xlink="http://www.w3.org/1999/xlink"
 xmlns:xodm="http://www.corel.com/coreldraw/odm/2003">
 <defs>
  <style type="text/css">
   <![CDATA[
    .fil1 {fill:#FFCE28;fill-rule:nonzero}
    .fil0 {fill:#D33438;fill-rule:nonzero}
   ]]>
  </style>
 </defs>
 <g id="Camada_x0020_1">
  <metadata id="CorelCorpID_0Corel-Layer"/>
  <g id="_2671105967232">
   <path class="fil0" d="M500.25 1392.57l-22.66 2.57 -49.54 6.68 19.35 180.23 33.81 -0.46c48.23,-5.43 80.82,-13.95 97.77,-25.55 23.77,-16.13 33.44,-44.8 29,-86.08 -3.25,-30.24 -14.24,-51.38 -33.04,-63.43 -18.12,-12.87 -43.03,-17.51 -74.69,-13.96l0 0zm-36.25 -307l-64.77 7.3 12.64 158.59 22.68 -2.55 47.63 -4.26c25.18,-2.83 43.81,-12.4 55.92,-28.67 12.09,-16.29 16.75,-37.32 13.96,-63.13 -5.46,-50.83 -34.81,-73.26 -88.06,-67.28l0 0zm367.25 428.6c-10.96,81.05 -51.43,138.22 -121.44,171.47 -39.51,18.63 -109.66,33.63 -210.41,44.96 -25.9,2.91 -56.16,5.95 -90.78,9.12 -34.7,2.4 -63.25,4.52 -85.65,6.28 -15.84,1.79 -43.47,5.67 -82.88,11.6 -38.71,5.83 -62.37,9.25 -71.03,10.24l-16.39 -152.59 84.45 -7.27 -52.96 -493.12 -83.96 11.72 -15.43 -153.82c20.85,-2.35 49,-4.76 84.45,-7.28 35.41,-2.48 60.68,-4.6 75.79,-6.3 24.45,-2.75 63.97,-7.94 118.5,-15.59 55.25,-7.73 84.69,-11.76 88.29,-12.19 110.83,-12.49 192.2,-0.75 244.15,35.16 42.48,29.54 67.17,76.37 74.07,140.48 3.72,34.67 -1.39,68.43 -15.35,101.34 -13.3,32.07 -33.55,57.1 -60.76,75.09 38.36,11.34 69.71,32.05 94.07,62.13 24.27,29.35 38.71,65.4 43.3,108.16 2.14,19.89 2.11,40.04 -0.05,60.41l0 0z"/>
   <path class="fil0" d="M1486.84 963.62l40.47 387.09c9.97,92.86 -9.46,166.3 -58.27,220.3 -46.28,50.71 -114.04,81.1 -203.27,91.16 -12.95,1.48 -25.56,2.89 -37.77,4.26 -11.04,-1 -19.12,-1.59 -24.22,-1.75 -79.64,-2.21 -141.97,-23.18 -187.05,-62.85 -44.4,-40.49 -71,-101.66 -79.8,-183.49l-41.68 -388.05 -87.07 13.15 -16.29 -151.46 183.87 -17.35 183.18 -24.01 16.39 152.59 -68.6 2.11 41.92 380.21c5,46.44 14.92,77.77 29.75,94.02 15.59,16.13 43.87,21.9 84.9,17.26 44.62,-5.02 74.13,-15.04 88.54,-30.09 15.13,-15.14 20.37,-44.46 15.69,-87.95l-42.53 -395.81 -68.84 10 -15.19 -151.59 159.03 -14.55 157.27 -21.09 16.26 151.47 -86.72 6.41 0.02 0z"/>
   <path class="fil0" d="M1927.36 918.47l-19.42 2.18 -19.32 3.29 18.31 160.21 42.32 -2.54c38.87,-4.38 65.97,-13.02 81.35,-25.96 19.38,-16.36 27.24,-41.49 23.57,-75.38 -2.99,-28.01 -17.39,-46.89 -43.21,-56.68 -20.46,-7.37 -48.34,-9.12 -83.6,-5.13l0 0zm362.39 607.06l-115.14 16.35 -196.13 -310.27 -56.11 6.33 19.11 178.02 82.87 -11.61 16.4 152.59 -186.04 17.61 -192.87 25.08 -16.39 -152.59 85.52 -7.38 -52.97 -493.11 -85.02 11.82 -16.54 -153.69c23.78,-2.67 51.2,-5.03 82.29,-7.03 31.04,-2.75 64.94,-5.82 101.72,-9.23 29.52,-3.31 53.23,-6.36 71.13,-9.12 72.38,-11.14 112.16,-17.1 119.37,-17.93 81.32,-9.18 149.43,-2.27 204.32,20.63 72.5,30.61 113.02,85.73 121.57,165.34 5.06,47.15 -0.83,90.74 -17.67,130.67 -16.89,39.19 -44.37,71.76 -82.36,97.69l131.72 198.89 87.2 -12.06 16.5 153.69c-16.56,1.85 -35.3,3.58 -56.25,5.21 -20.24,1.54 -42.3,2.89 -66.21,4.09l0 0z"/>
   <path class="fil0" d="M3173.23 1054.49c12.84,119.41 -12.59,218.5 -76.25,297.29 -63.01,77.97 -154.59,123.75 -274.78,137.27 -122.32,13.79 -225.32,-9.31 -308.97,-69.26 -89.18,-63.81 -140.4,-157.62 -153.71,-281.44 -13.29,-123.83 11.68,-230.35 74.95,-319.53 65.73,-93.18 158.68,-146.55 278.87,-160.1 40.32,-4.54 79.38,-3.72 117.18,2.46 38.47,5.37 72.31,18.71 101.56,40.04l-5.58 -51.97 154.24 -18.5c0.52,58.87 3.72,115.97 9.65,171.25 1.37,12.51 4.5,34.92 9.41,67.21 4.84,31.52 7.78,52.07 8.79,61.64l-156.51 17.64c-13.55,-44.72 -39.01,-78.41 -76.4,-101.05 -36.67,-22.73 -77.33,-31.58 -121.95,-26.54 -65.49,7.37 -112.65,39.52 -141.49,96.5 -25.16,50.57 -33.82,112.35 -25.99,185.33 7.67,71.48 29.65,126.82 65.9,166 40.42,43.95 93.72,62.18 159.93,54.72 79.16,-8.93 126.88,-53.09 143.11,-132.5l-151.01 18.14 -16.15 -150.37 381.18 -41.84 4.04 37.59 0 0z"/>
   <path class="fil0" d="M3885.19 1224.93l14.24 122.62 -328.52 33.66 -325.65 40.04 -16.4 -152.59 84.42 -7.27 -52.95 -493.11 -83.97 11.71 -16.5 -153.69c52.53,-5.9 109.81,-11.63 171.87,-17.12 62.71,-6.31 113.88,-11.34 153.52,-15.06 42.49,-4.79 101.4,-12.17 176.81,-22.16 75.33,-10.72 122.7,-17.16 142.14,-19.35l27.78 278.84 -161.92 18.25 -13.31 -123.85 -185.69 20.93 17.69 164.73 178.02 -21.17 16.38 152.59 -178.24 18.95 18.66 173.6 197.55 -22.27 -12.83 -119.41 164.08 -18.47 12.81 149.62 0 -0.03z"/>
   <path class="fil0" d="M4212.9 660.98l-19.44 2.19 -19.3 3.29 18.29 160.17 42.34 -2.53c38.88,-4.36 65.98,-13.02 81.35,-25.93 19.35,-16.37 27.21,-41.49 23.58,-75.39 -3.02,-28.01 -17.42,-46.91 -43.22,-56.67 -20.47,-7.41 -48.33,-9.12 -83.6,-5.14zm362.39 607.07l-115.16 16.33 -196.11 -310.25 -56.14 6.33 19.12 177.98 82.9 -11.58 16.39 152.59 -186.04 17.59 -192.86 25.1 -16.4 -152.59 85.52 -7.4 -52.96 -493.09 -85.06 11.81 -16.5 -153.68c23.74,-2.67 51.17,-5.03 82.28,-7.03 31.02,-2.75 64.94,-5.83 101.7,-9.23 29.51,-3.34 53.23,-6.35 71.13,-9.14 72.4,-11.13 112.18,-17.11 119.37,-17.91 81.31,-9.18 149.43,-2.3 204.34,20.6 72.5,30.64 113,85.74 121.55,165.34 5.05,47.19 -0.83,90.74 -17.64,130.68 -16.92,39.21 -44.38,71.77 -82.4,97.7l131.72 198.9 87.21 -12.09 16.52 153.69c-16.55,1.87 -35.32,3.61 -56.27,5.22 -20.22,1.55 -42.3,2.91 -66.19,4.12l0 0z"/>
   <path class="fil0" d="M4987.72 419.26l146.82 -16.55c2.21,20.64 3.76,45.45 4.7,74.45 1.59,28.15 2.6,44.46 3.07,48.9 1.35,12.51 4.52,35.29 9.52,68.28 5,33.01 8.02,54.31 9.06,63.89l-132.77 14.97c-2.54,-23.58 -9.44,-43.7 -20.69,-60.34 -10.53,-16.72 -27.56,-29.35 -51.05,-37.91 -22.78,-8.61 -44.59,-11.74 -65.47,-9.37 -20.16,2.24 -36.84,9.72 -50.05,22.43 -12.57,11.83 -17.8,27.34 -15.74,46.51 2.53,23.58 13.98,38.71 34.35,45.37 59.96,22.35 119.18,44.78 177.69,67.26 59.21,22.43 102.78,48.49 130.75,78.17 33.71,35.71 53.73,83.08 60.07,142.05 7.83,72.95 -10.67,134.73 -55.5,185.28 -44.19,49.75 -101.56,78.6 -172.08,86.54 -30.24,3.39 -59.88,1.89 -88.99,-4.53 -28.28,-5.77 -54.61,-16.96 -78.99,-33.62l4.41 40.9 -140.35 15.82c-2.05,-19.16 -3.98,-43.94 -5.8,-74.33 -1.82,-30.38 -3.44,-52.56 -4.97,-66.56 -1.82,-16.95 -5.54,-41.52 -11.17,-73.73 -4.95,-32.27 -8,-53.93 -9.17,-64.99l152.07 -18.27 -0.86 32.56c5.22,48.66 29.89,81.67 74,99.1 19.04,7.54 37.88,10.26 56.59,8.16 21.6,-2.43 38.96,-10.35 52.08,-23.77 13.04,-14.15 18.47,-31.55 16.25,-52.19 -3.22,-30.21 -32.58,-56 -88.05,-77.36 -6.06,-2.29 -29.13,-10.13 -69.18,-23.53 -84.71,-29.26 -145.96,-63.75 -183.73,-103.5 -32.1,-34.44 -50.66,-74.88 -55.66,-121.31 -7.99,-74.45 8.56,-137.49 49.62,-189.11 41.09,-51.61 97.6,-81.47 169.56,-89.57 26.63,-3.02 52.29,-1.45 76.99,4.73 25.33,5.37 50.35,14.46 75.03,27.35l-2.34 -32.18 0 0.02z"/>
   <path class="fil1" d="M151.09 1970.93c723.12,-128.71 2366.41,-372.76 3013.05,-419.3 -921.6,172.92 -2903.15,608.44 -2878.18,629.5 -90.47,-95.56 -114.39,-159.21 -134.87,-210.2z"/>
   <path class="fil1" d="M5293.84 1401.54c-485.53,-35.26 -2936.06,258.72 -4572.36,764.69 2216.79,-537.48 4209.16,-583.81 4393.64,-504.29 75.87,-93.91 112.02,-138.07 178.72,-260.4z"/>
   <path class="fil1" d="M5071.1 1717.43c-233.32,-91.17 -1765.06,1.79 -2672.34,180.94 1117.02,-57.18 2179,-59.34 2436.82,19.81 93.41,-70.6 137.68,-103.72 235.52,-200.75z"/>
   <path class="fil1" d="M5142.74 210.2c-723.15,128.71 -2366.44,372.73 -3013.05,419.3 921.57,-172.92 2903.11,-608.44 2878.18,-629.5 90.46,95.56 114.38,159.21 134.87,210.2z"/>
   <path class="fil1" d="M-0 779.58c485.5,35.26 2936.05,-258.72 4572.35,-764.7 -2216.79,537.49 -4209.18,583.82 -4393.67,504.29 -75.86,93.92 -112.01,138.07 -178.68,260.41z"/>
   <path class="fil1" d="M222.71 463.69c233.32,91.17 1765.06,-1.79 2672.34,-180.94 -1116.99,57.18 -2178.97,59.34 -2436.8,-19.81 -93.43,70.6 -137.7,103.72 -235.54,200.75z"/>
  </g>
 </g>
</svg>
